<?xml version="1.0" encoding="UTF-8" standalone="no"?>
<!-- Created with Inkscape (http://www.inkscape.org/) -->

<svg
   id="svg5"
   version="1.1"
   viewBox="0 0 420 594"
   height="594mm"
   width="420mm"
   xmlns="http://www.w3.org/2000/svg"
   xmlns:svg="http://www.w3.org/2000/svg">
  <defs
     id="defs2" />
  <g
     id="layer1">
    <circle
       style="fill:none;stroke:#000000;stroke-width:0.5;stroke-linecap:round;stroke-dasharray:none;paint-order:markers stroke fill"
       id="path234"
       cx="165"
       cy="203"
       r="13.5" />
    <circle
       style="fill:none;stroke:#000000;stroke-width:0.5;stroke-linecap:round;stroke-dasharray:none;paint-order:markers stroke fill"
       id="circle461"
       cx="165"
       cy="163"
       r="13.5" />
    <circle
       style="fill:none;stroke:#000000;stroke-width:0.5;stroke-linecap:round;stroke-dasharray:none;paint-order:markers stroke fill"
       id="circle461-5"
       cx="-55"
       cy="175"
       transform="scale(-1,1)"
       r="6.5" />
    <circle
       style="fill:none;stroke:#000000;stroke-width:0.5;stroke-linecap:round;stroke-dasharray:none;paint-order:markers stroke fill"
       id="circle494"
       cx="244.65823"
       cy="-132.10353"
       r="13.5"
       transform="rotate(71.472296)" />
    <circle
       style="fill:none;stroke:#000000;stroke-width:0.5;stroke-linecap:round;stroke-dasharray:none;paint-order:markers stroke fill"
       id="circle502"
       cx="206.72858"
       cy="-144.81253"
       r="13.5"
       transform="rotate(71.472296)" />
    <rect
       style="fill:none;stroke:#000000;stroke-width:0.5;stroke-linecap:round;stroke-dasharray:none;paint-order:markers stroke fill"
       id="rect1221"
       width="220"
       height="220"
       x="10"
       y="10" />
    <rect
       style="fill:none;stroke:#000000;stroke-width:0.5;stroke-linecap:round;stroke-dasharray:none;paint-order:markers stroke fill"
       id="rect1227"
       width="220"
       height="220"
       x="10"
       y="235" />
    <circle
       style="fill:none;stroke:#000000;stroke-width:0.5;stroke-linecap:round;stroke-dasharray:none;paint-order:markers stroke fill"
       id="circle461-5-2-9-6-8"
       cx="-15"
       cy="15"
       transform="scale(-1,1)"
       r="1.5" />
    <circle
       style="fill:none;stroke:#000000;stroke-width:0.5;stroke-linecap:round;stroke-dasharray:none;paint-order:markers stroke fill"
       id="circle461-5-2-9-6-8-9"
       cx="-225"
       cy="15"
       transform="scale(-1,1)"
       r="1.5" />
    <circle
       style="fill:none;stroke:#000000;stroke-width:0.5;stroke-linecap:round;stroke-dasharray:none;paint-order:markers stroke fill"
       id="circle461-5-2-9-6-8-2"
       cx="-225"
       cy="225"
       transform="scale(-1,1)"
       r="1.5" />
    <circle
       style="fill:none;stroke:#000000;stroke-width:0.5;stroke-linecap:round;stroke-dasharray:none;paint-order:markers stroke fill"
       id="circle461-5-2-9-6-8-0"
       cx="-15"
       cy="225"
       transform="scale(-1,1)"
       r="1.5" />
    <circle
       style="fill:none;stroke:#000000;stroke-width:0.5;stroke-linecap:round;stroke-dasharray:none;paint-order:markers stroke fill"
       id="circle461-5-2-9-6-8-7"
       cx="-22.5"
       cy="22.5"
       transform="scale(-1,1)"
       r="1.5" />
    <circle
       style="fill:none;stroke:#000000;stroke-width:0.5;stroke-linecap:round;stroke-dasharray:none;paint-order:markers stroke fill"
       id="circle461-5-2-9-6-8-7-9"
       cx="-217.5"
       cy="22.5"
       transform="scale(-1,1)"
       r="1.5" />
    <circle
       style="fill:none;stroke:#000000;stroke-width:0.5;stroke-linecap:round;stroke-dasharray:none;paint-order:markers stroke fill"
       id="circle461-5-2-9-6-8-7-9-7"
       cx="-22.5"
       cy="115.5"
       transform="scale(-1,1)"
       r="1.5" />
    <circle
       style="fill:none;stroke:#000000;stroke-width:0.5;stroke-linecap:round;stroke-dasharray:none;paint-order:markers stroke fill"
       id="circle461-5-2-9-6-8-7-9-7-6"
       cx="-55"
       cy="132.5"
       transform="scale(-1,1)"
       r="4" />
    <circle
       style="fill:none;stroke:#000000;stroke-width:0.5;stroke-linecap:round;stroke-dasharray:none;paint-order:markers stroke fill"
       id="circle461-5-2-9-6-8-7-9-3"
       cx="-217.5"
       cy="115.5"
       transform="scale(-1,1)"
       r="1.5" />
    <circle
       style="fill:none;stroke:#000000;stroke-width:0.5;stroke-linecap:round;stroke-dasharray:none;paint-order:markers stroke fill"
       id="circle461-5-2-9-6-8-23"
       cx="-15"
       cy="240"
       transform="scale(-1,1)"
       r="1.5" />
    <circle
       style="fill:none;stroke:#000000;stroke-width:0.5;stroke-linecap:round;stroke-dasharray:none;paint-order:markers stroke fill"
       id="circle461-5-2-9-6-8-75"
       cx="-225"
       cy="240"
       transform="scale(-1,1)"
       r="1.5" />
    <circle
       style="fill:none;stroke:#000000;stroke-width:0.5;stroke-linecap:round;stroke-dasharray:none;paint-order:markers stroke fill"
       id="circle461-5-2-9-6-8-92"
       cx="-15"
       cy="450"
       transform="scale(-1,1)"
       r="1.5" />
    <circle
       style="fill:none;stroke:#000000;stroke-width:0.5;stroke-linecap:round;stroke-dasharray:none;paint-order:markers stroke fill"
       id="circle461-5-2-9-6-8-28"
       cx="-225"
       cy="450"
       transform="scale(-1,1)"
       r="1.5" />
    <circle
       style="fill:none;stroke:#000000;stroke-width:0.5;stroke-linecap:round;stroke-dasharray:none;paint-order:markers stroke fill"
       id="circle1707"
       cx="-55"
       cy="217.5"
       transform="scale(-1,1)"
       r="4" />
    <g
       style="fill:none;stroke:#000000;stroke-linecap:round;stroke-linejoin:round;stroke-width:0.49999997;stroke-dasharray:none"
       transform="rotate(90,3.7099439,-2.1309867)"
       id="g5188">
      <g
         transform="translate(155,-20)"
         id="g5186"
         style="stroke-width:0.49999997;stroke-dasharray:none">
        <path
           d="M 536,441 189,0 m 0,441 H 536 M 189,0 h 347"
           style="stroke-width:28.98130507;stroke-dasharray:none"
           transform="scale(0.0172525,-0.0172525)"
           id="path5174" />
        <path
           d="m 346,662 -94,-32 -32,-63 v -63 l 32,-63 63,-31 126,-32 95,-32 62,-62 32,-64 V 126 L 598,63 567,31.5 472,0 H 346 L 252,31.5 220,63 189,126 v 94 l 31,64 64,62 94,32 126,32 63,31 31,63 v 63 l -31,63 -95,32 H 346"
           style="stroke-width:28.98130507;stroke-dasharray:none"
           transform="matrix(0.0172525,0,0,-0.0172525,9.24734,0)"
           id="path5176" />
        <path
           d="M 378,662 284,630 220,536 189,378 V 284 L 220,126 284,31.5 378,0 h 63 l 95,31.5 62,94.5 32,158 v 94 l -32,158 -62,94 -95,32 h -63"
           style="stroke-width:28.98130507;stroke-dasharray:none"
           transform="matrix(0.0172525,0,0,-0.0172525,20.1164,0)"
           id="path5178" />
        <path
           d="M 220,441 V 0 m 0,315 95,95 63,31 h 94 l 64,-31 31,-95 V 0 m 0,315 95,95 62,31 h 95 l 63,-31 32,-95 V 0"
           style="stroke-width:28.98130507;stroke-dasharray:none"
           transform="matrix(0.0172525,0,0,-0.0172525,30.9855,0)"
           id="path5180" />
        <path
           d="M 567,441 V -63 l -31,-95 -32,-31 -63,-31 h -95 l -62,31 m 283,535 -63,64 -63,31 H 346 L 284,410 220,346 189,252 V 189 L 220,94.5 284,31.5 346,0 h 95 l 63,31.5 63,63"
           style="stroke-width:28.98130507;stroke-dasharray:none"
           transform="matrix(0.0172525,0,0,-0.0172525,47.2891,0)"
           id="path5182" />
        <path
           d="m 567,346 -63,64 -63,31 H 346 L 284,410 220,346 189,252 V 189 L 220,94.5 284,31.5 346,0 h 95 l 63,31.5 63,63"
           style="stroke-width:28.98130507;stroke-dasharray:none"
           transform="matrix(0.0172525,0,0,-0.0172525,57.6061,0)"
           id="path5184" />
      </g>
    </g>
    <g
       style="fill:none;stroke:#000000;stroke-linecap:round;stroke-linejoin:round;stroke-width:0.50000003;stroke-dasharray:none"
       id="g5380">
      <g
         transform="translate(178.361, 181.765)"
         id="g5378"
         style="stroke-width:0.50000003;stroke-dasharray:none">
        <path
           d="M 126 662 L 378 346 L 378 0 M 630 662 L 378 346"
           style="stroke-width:48.92607556;stroke-dasharray:none"
           transform="scale(0.0102195, -0.0102195)"
           id="path5376" />
      </g>
    </g>
    <g
       style="fill:none;stroke:#000000;stroke-linecap:round;stroke-linejoin:round;stroke-width:0.50000003;stroke-dasharray:none"
       id="g5386">
      <g
         transform="translate(216.361, 168.765)"
         id="g5384"
         style="stroke-width:0.50000003;stroke-dasharray:none">
        <path
           d="M 189 662 L 630 0 M 630 662 L 189 0"
           style="stroke-width:48.92607556;stroke-dasharray:none"
           transform="scale(0.0102195, -0.0102195)"
           id="path5382" />
      </g>
    </g>
    <g
       style="fill:none;stroke:#000000;stroke-linecap:round;stroke-linejoin:round;stroke-width:0.50000003;stroke-dasharray:none"
       id="g5392">
      <g
         transform="translate(216.361, 208.765)"
         id="g5390"
         style="stroke-width:0.50000003;stroke-dasharray:none">
        <path
           d="M 378 662 L 126 0 M 378 662 L 630 0 M 220 220 L 536 220"
           style="stroke-width:48.92607556;stroke-dasharray:none"
           transform="scale(0.0102195, -0.0102195)"
           id="path5388" />
      </g>
    </g>
    <g
       style="fill:none;stroke:#000000;stroke-linecap:round;stroke-linejoin:round;stroke-width:0.50000003;stroke-dasharray:none"
       id="g5398">
      <g
         transform="translate(178.361, 221.765)"
         id="g5396"
         style="stroke-width:0.50000003;stroke-dasharray:none">
        <path
           d="M 220 662 L 220 0 M 220 662 L 504 662 L 598 630 L 630 598 L 662 536 L 662 472 L 630 410 L 598 378 L 504 346 M 220 346 L 504 346 L 598 315 L 630 284 L 662 220 L 662 126 L 630 63 L 598 31.5 L 504 0 L 220 0"
           style="stroke-width:48.92607556;stroke-dasharray:none"
           transform="scale(0.0102195, -0.0102195)"
           id="path5394" />
      </g>
    </g>
  </g>
</svg>
